<?xml version="1.0" encoding="UTF-8"?>
<svg xmlns="http://www.w3.org/2000/svg" version="1.1" viewBox="0 0 2000 2000">
  <defs>
    <style>
      .cls-1 {
        fill: none;
      }

      .cls-2 {
        fill: #4366b0;
      }

      .cls-3 {
        fill: #2b56a6;
      }
    </style>
  </defs>
  <!-- Generator: Adobe Illustrator 28.6.0, SVG Export Plug-In . SVG Version: 1.2.0 Build 709)  -->
  <g>
    <g id="Layer_1">
      <polygon class="cls-1" points="1209 790.5 1209 791.2 1648.6 791.2 1648.6 351.6 1648 351.6 1209 351.6 1209 790.5"/>
      <polygon class="cls-1" points="351.4 852.4 351.4 1648.1 351.4 1648.7 1147.8 1648.7 1147.8 1480.3 519.8 1480.3 519.8 1479.7 519.8 852.4 351.4 852.4"/>
      <polygon class="cls-2" points="351.4 852.4 519.8 852.4 519.8 1479.7 749.6 1249.9 749.6 622.7 121.7 622.7 121.7 1877.9 351.4 1648.1 351.4 852.4"/>
      <polygon class="cls-3" points="1377.5 1250.6 749.6 1250.6 749.6 1249.9 519.8 1479.7 519.8 1480.3 1147.8 1480.3 1147.8 1648.7 351.4 1648.7 351.4 1648.1 121.7 1877.9 121.7 1878.5 1377.5 1878.5 1377.5 1250.6"/>
      <polygon class="cls-3" points="1648 351.6 1648.6 351.6 1648.6 791.2 1209 791.2 1209 790.5 979.3 1020.3 979.3 1020.9 1878.3 1020.9 1878.3 121.8 1877.7 121.8 1648 351.6"/>
      <polygon class="cls-2" points="1209 351.6 1648 351.6 1877.7 121.8 979.3 121.8 979.3 1020.3 1209 790.5 1209 351.6"/>
    </g>
  </g>
</svg>