<svg width="125" height="56" viewBox="0 0 125 56" fill="none" xmlns="http://www.w3.org/2000/svg">
<rect x="1" y="1" width="54" height="54" rx="26" fill="#F8CC38" fill-opacity="0.1" stroke="#F8CC38" stroke-width="2"/>
<path d="M13.3778 38V18.3636H20.0128C21.5469 18.3636 22.8061 18.6257 23.7905 19.1499C24.7749 19.6676 25.5036 20.3803 25.9766 21.288C26.4496 22.1957 26.6861 23.228 26.6861 24.3849C26.6861 25.5419 26.4496 26.5678 25.9766 27.4627C25.5036 28.3576 24.7781 29.0607 23.8001 29.5721C22.8221 30.0771 21.5724 30.3295 20.0511 30.3295H14.6818V28.1818H19.9744C21.0227 28.1818 21.8665 28.0284 22.5057 27.7216C23.1513 27.4148 23.6179 26.9801 23.9055 26.4176C24.1996 25.8487 24.3466 25.1712 24.3466 24.3849C24.3466 23.5987 24.1996 22.9116 23.9055 22.3235C23.6115 21.7354 23.1417 21.2816 22.4961 20.962C21.8505 20.636 20.9972 20.473 19.9361 20.473H15.7557V38H13.3778ZM22.6207 29.179L27.4531 38H24.6918L19.9361 29.179H22.6207ZM30.6483 38V18.3636H37.2833C38.8238 18.3636 40.083 18.6417 41.061 19.1978C42.0454 19.7475 42.7741 20.4922 43.2471 21.4318C43.7201 22.3714 43.9566 23.4197 43.9566 24.5767C43.9566 25.7337 43.7201 26.7852 43.2471 27.7312C42.7805 28.6772 42.0582 29.4315 41.0802 29.994C40.1022 30.5501 38.8493 30.8281 37.3216 30.8281H32.566V28.7188H37.2449C38.2996 28.7188 39.1466 28.5366 39.7858 28.1722C40.425 27.8079 40.8884 27.3157 41.176 26.6957C41.4701 26.0692 41.6171 25.3629 41.6171 24.5767C41.6171 23.7905 41.4701 23.0874 41.176 22.4673C40.8884 21.8473 40.4218 21.3615 39.7762 21.0099C39.1306 20.652 38.2741 20.473 37.2066 20.473H33.0262V38H30.6483Z" fill="#F8CC38"/>
<rect x="70" y="1" width="54" height="54" rx="26" fill="#F8CC38" fill-opacity="0.1" stroke="#F8CC38" stroke-width="2"/>
<path d="M97.5 29.0625C101.382 29.0625 104.531 25.9131 104.531 22.0312C104.531 18.1494 101.382 15 97.5 15C93.6182 15 90.4688 18.1494 90.4688 22.0312C90.4688 25.9131 93.6182 29.0625 97.5 29.0625ZM103.75 30.625H101.06C99.9756 31.123 98.7695 31.4062 97.5 31.4062C96.2305 31.4062 95.0293 31.123 93.9404 30.625H91.25C87.7979 30.625 85 33.4229 85 36.875V37.6562C85 38.9502 86.0498 40 87.3438 40H107.656C108.95 40 110 38.9502 110 37.6562V36.875C110 33.4229 107.202 30.625 103.75 30.625Z" fill="#F8CC38"/>
</svg>
