<svg width="305" height="131" viewBox="0 0 305 131" fill="none" xmlns="http://www.w3.org/2000/svg">
<rect x="1" y="1" width="303" height="129" rx="16" fill="#F8CC38" fill-opacity="0.1" stroke="#F8CC38" stroke-width="2"/>
<rect x="14" y="15" width="243" height="15" rx="4" fill="white" fill-opacity="0.2"/>
<rect x="14" y="35" width="169" height="15" rx="4" fill="white" fill-opacity="0.2"/>
<rect x="14" y="55" width="210" height="15" rx="4" fill="white" fill-opacity="0.2"/>
<rect x="14" y="75" width="189" height="15" rx="4" fill="white" fill-opacity="0.2"/>
<rect x="231" y="57" width="63" height="63" rx="31.5" fill="#F8CC38" fill-opacity="0.1" stroke="#F8CC38" stroke-width="2"/>
<path d="M263.32 79.9283L274.783 92.0329C275.575 92.8696 275.575 94.2225 274.783 95.0502L272.878 97.0617C272.086 97.8984 270.805 97.8984 270.021 97.0617L261.887 88.4905L253.761 97.0706C252.969 97.9073 251.688 97.9073 250.904 97.0706L248.99 95.0591C248.198 94.2225 248.198 92.8696 248.99 92.0418L260.454 79.9372C261.246 79.0916 262.527 79.0916 263.32 79.9283Z" fill="#F8CC38"/>
</svg>
