<svg width="132" height="23" viewBox="0 0 132 23" fill="none" xmlns="http://www.w3.org/2000/svg">
<path d="M35.1948 7.43336L34.6747 7.50919L28.3335 8.43367L28.3328 8.43377C28.0169 8.47958 27.8876 8.87249 28.1186 9.09745L28.1189 9.09772L32.7066 13.5682L33.0833 13.9353L32.9943 14.4537L31.9093 20.7682C31.855 21.0855 32.1905 21.3264 32.4691 21.1787L32.4722 21.177L38.145 18.1952L38.6103 17.9507L39.0755 18.1952L44.7483 21.177L44.7484 21.1771C45.0339 21.3272 45.3645 21.0795 45.3112 20.7682L44.2263 14.4537L44.1372 13.9353L44.5139 13.5682L49.1016 9.09772L49.1019 9.09745C49.3329 8.87249 49.2036 8.47958 48.8877 8.43377L48.887 8.43367L42.5459 7.50919L42.0258 7.43336L41.7933 6.96198L38.96 1.21729C38.9599 1.21703 38.9597 1.21676 38.9596 1.2165C38.8137 0.923842 38.4017 0.932184 38.2615 1.21545L35.1948 7.43336ZM35.1948 7.43336L35.4273 6.96198L38.2613 1.21583L35.1948 7.43336Z" fill="#F8CC38" stroke="#F8CC38" stroke-width="2"/>
<path d="M62.1948 7.43336L61.6747 7.50919L55.3335 8.43367L55.3328 8.43377C55.0169 8.47958 54.8876 8.87249 55.1186 9.09745L55.1189 9.09772L59.7066 13.5682L60.0833 13.9353L59.9943 14.4537L58.9093 20.7682C58.855 21.0855 59.1905 21.3264 59.4691 21.1787L59.4722 21.177L65.145 18.1952L65.6103 17.9507L66.0755 18.1952L71.7483 21.177L71.7484 21.1771C72.0339 21.3272 72.3645 21.0795 72.3112 20.7682L71.2263 14.4537L71.1372 13.9353L71.5139 13.5682L76.1016 9.09772L76.1019 9.09745C76.3329 8.87249 76.2036 8.47958 75.8877 8.43377L75.887 8.43367L69.5459 7.50919L69.0258 7.43336L68.7933 6.96198L65.96 1.21729C65.9599 1.21703 65.9597 1.21676 65.9596 1.2165C65.8137 0.923842 65.4017 0.932184 65.2615 1.21545L62.1948 7.43336ZM62.1948 7.43336L62.4273 6.96198L65.2613 1.21583L62.1948 7.43336Z" fill="#F8CC38" stroke="#F8CC38" stroke-width="2"/>
<path d="M89.1948 7.43336L88.6747 7.50919L82.3335 8.43367L82.3328 8.43377C82.0169 8.47958 81.8876 8.87249 82.1186 9.09745L82.1189 9.09772L86.7066 13.5682L87.0833 13.9353L86.9943 14.4537L85.9093 20.7682C85.855 21.0855 86.1905 21.3264 86.4691 21.1787L86.4722 21.177L92.145 18.1952L92.6103 17.9507L93.0755 18.1952L98.7483 21.177L98.7484 21.1771C99.0339 21.3272 99.3645 21.0795 99.3112 20.7682L98.2263 14.4537L98.1372 13.9353L98.5139 13.5682L103.102 9.09772L103.102 9.09745C103.333 8.87249 103.204 8.47958 102.888 8.43377L102.887 8.43367L96.5459 7.50919L96.0258 7.43336L95.7933 6.96198L92.96 1.21729C92.9599 1.21703 92.9597 1.21676 92.9596 1.2165C92.8137 0.923842 92.4017 0.932184 92.2615 1.21545L89.1948 7.43336ZM89.1948 7.43336L89.4273 6.96198L92.2613 1.21583L89.1948 7.43336Z" fill="#F8CC38" fill-opacity="0.1" stroke="#F8CC38" stroke-width="2"/>
<path d="M116.195 7.43336L115.675 7.50919L109.334 8.43367L109.333 8.43377C109.017 8.47958 108.888 8.87249 109.119 9.09745L109.119 9.09772L113.707 13.5682L114.083 13.9353L113.994 14.4537L112.909 20.7682C112.855 21.0855 113.191 21.3264 113.469 21.1787L113.472 21.177L119.145 18.1952L119.61 17.9507L120.076 18.1952L125.748 21.177L125.748 21.1771C126.034 21.3272 126.364 21.0795 126.311 20.7682L125.226 14.4537L125.137 13.9353L125.514 13.5682L130.102 9.09772L130.102 9.09745C130.333 8.87249 130.204 8.47958 129.888 8.43377L129.887 8.43367L123.546 7.50919L123.026 7.43336L122.793 6.96198L119.96 1.21729C119.96 1.21703 119.96 1.21676 119.96 1.2165C119.814 0.923842 119.402 0.932184 119.261 1.21545L116.195 7.43336ZM116.195 7.43336L116.427 6.96198L119.261 1.21583L116.195 7.43336Z" fill="#F8CC38" fill-opacity="0.1" stroke="#F8CC38" stroke-width="2"/>
<path d="M8.19477 7.43336L7.67467 7.50919L1.33352 8.43367L1.33279 8.43377C1.01694 8.47958 0.887609 8.87249 1.11864 9.09745L1.11893 9.09772L5.7066 13.5682L6.08333 13.9353L5.99426 14.4537L4.90931 20.7682C4.855 21.0855 5.19054 21.3264 5.46911 21.1787L5.47225 21.177L11.145 18.1952L11.6103 17.9507L12.0755 18.1952L17.7483 21.177L17.7484 21.1771C18.0339 21.3272 18.3645 21.0795 18.3112 20.7682L17.2263 14.4537L17.1372 13.9353L17.5139 13.5682L22.1016 9.09772L22.1019 9.09745C22.3329 8.87249 22.2036 8.47958 21.8877 8.43377L21.887 8.43367L15.5459 7.50919L15.0258 7.43336L14.7933 6.96198L11.96 1.21729C11.9599 1.21703 11.9597 1.21676 11.9596 1.2165C11.8137 0.923842 11.4017 0.932184 11.2615 1.21545L8.19477 7.43336ZM8.19477 7.43336L8.42725 6.96198L11.2613 1.21583L8.19477 7.43336Z" fill="#F8CC38" stroke="#F8CC38" stroke-width="2"/>
<path d="M92.6103 0C92.1155 0 91.6207 0.256076 91.3646 0.772569L88.5304 6.5191L82.1893 7.43924C81.0521 7.60417 80.5964 9.00608 81.421 9.80903L86.0087 14.2795L84.9236 20.5946C84.7283 21.7274 85.9219 22.5911 86.9375 22.0573L92.6103 19.0799V0Z" fill="#F8CC38"/>
</svg>
