<svg width="252" height="210" viewBox="0 0 252 210" fill="none" xmlns="http://www.w3.org/2000/svg">
<rect x="1" y="1" width="250" height="208" rx="30" fill="#F8CC38" fill-opacity="0.1" stroke="#F8CC38" stroke-width="2"/>
<rect x="72" y="92" width="157" height="7" rx="3.5" fill="#F8CC38" fill-opacity="0.1" stroke="#F8CC38" stroke-width="2"/>
<path d="M75.5 92H200V99H75.5C73.567 99 72 97.433 72 95.5C72 93.567 73.567 92 75.5 92Z" fill="#F8CC38" stroke="#F8CC38" stroke-width="2"/>
<rect x="72" y="112" width="157" height="7" rx="3.5" fill="#F8CC38" fill-opacity="0.1" stroke="#F8CC38" stroke-width="2"/>
<path d="M75.5 112H143V119H75.5C73.567 119 72 117.433 72 115.5C72 113.567 73.567 112 75.5 112Z" fill="#F8CC38" stroke="#F8CC38" stroke-width="2"/>
<rect x="72" y="132" width="157" height="7" rx="3.5" fill="#F8CC38" fill-opacity="0.1" stroke="#F8CC38" stroke-width="2"/>
<path d="M75.5 132H106V139H75.5C73.567 139 72 137.433 72 135.5C72 133.567 73.567 132 75.5 132Z" fill="#F8CC38" stroke="#F8CC38" stroke-width="2"/>
<rect x="72" y="152" width="157" height="7" rx="3.5" fill="#F8CC38" fill-opacity="0.1" stroke="#F8CC38" stroke-width="2"/>
<path d="M75.5 152H81V159H75.5C73.567 159 72 157.433 72 155.5C72 153.567 73.567 152 75.5 152Z" fill="#F8CC38" stroke="#F8CC38" stroke-width="2"/>
<rect x="72" y="172" width="157" height="7" rx="3.5" fill="#F8CC38" fill-opacity="0.1" stroke="#F8CC38" stroke-width="2"/>
<path d="M75.5 172H76V179H75.5C73.567 179 72 177.433 72 175.5C72 173.567 73.567 172 75.5 172Z" fill="#F8CC38" stroke="#F8CC38" stroke-width="2"/>
<path d="M95.1948 30.4334L94.6747 30.5092L88.3335 31.4337L88.3328 31.4338C88.0169 31.4796 87.8876 31.8725 88.1186 32.0974L88.1189 32.0977L92.7066 36.5682L93.0833 36.9353L92.9943 37.4537L91.9093 43.7682C91.855 44.0855 92.1905 44.3264 92.4691 44.1787L92.4722 44.177L98.145 41.1952L98.6103 40.9507L99.0755 41.1952L104.748 44.177L104.748 44.1771C105.034 44.3272 105.364 44.0795 105.311 43.7682L104.226 37.4537L104.137 36.9353L104.514 36.5682L109.102 32.0977L109.102 32.0974C109.333 31.8725 109.204 31.4796 108.888 31.4338L108.887 31.4337L102.546 30.5092L102.026 30.4334L101.793 29.962L98.96 24.2173C98.9599 24.217 98.9597 24.2168 98.9596 24.2165C98.8137 23.9238 98.4017 23.9322 98.2615 24.2154L95.1948 30.4334ZM95.1948 30.4334L95.4273 29.962L98.2613 24.2158L95.1948 30.4334Z" fill="#F8CC38" stroke="#F8CC38" stroke-width="2"/>
<path d="M122.195 30.4334L121.675 30.5092L115.334 31.4337L115.333 31.4338C115.017 31.4796 114.888 31.8725 115.119 32.0974L115.119 32.0977L119.707 36.5682L120.083 36.9353L119.994 37.4537L118.909 43.7682C118.855 44.0855 119.191 44.3264 119.469 44.1787L119.472 44.177L125.145 41.1952L125.61 40.9507L126.076 41.1952L131.748 44.177L131.748 44.1771C132.034 44.3272 132.364 44.0795 132.311 43.7682L131.226 37.4537L131.137 36.9353L131.514 36.5682L136.102 32.0977L136.102 32.0974C136.333 31.8725 136.204 31.4796 135.888 31.4338L135.887 31.4337L129.546 30.5092L129.026 30.4334L128.793 29.962L125.96 24.2173C125.96 24.217 125.96 24.2168 125.96 24.2165C125.814 23.9238 125.402 23.9322 125.261 24.2154L122.195 30.4334ZM122.195 30.4334L122.427 29.962L125.261 24.2158L122.195 30.4334Z" fill="#F8CC38" stroke="#F8CC38" stroke-width="2"/>
<path d="M149.195 30.4334L148.675 30.5092L142.334 31.4337L142.333 31.4338C142.017 31.4796 141.888 31.8725 142.119 32.0974L142.119 32.0977L146.707 36.5682L147.083 36.9353L146.994 37.4537L145.909 43.7682C145.855 44.0855 146.191 44.3264 146.469 44.1787L146.472 44.177L152.145 41.1952L152.61 40.9507L153.076 41.1952L158.748 44.177L158.748 44.1771C159.034 44.3272 159.364 44.0795 159.311 43.7682L158.226 37.4537L158.137 36.9353L158.514 36.5682L163.102 32.0977L163.102 32.0974C163.333 31.8725 163.204 31.4796 162.888 31.4338L162.887 31.4337L156.546 30.5092L156.026 30.4334L155.793 29.962L152.96 24.2173C152.96 24.217 152.96 24.2168 152.96 24.2165C152.814 23.9238 152.402 23.9322 152.261 24.2154L149.195 30.4334ZM149.195 30.4334L149.427 29.962L152.261 24.2158L149.195 30.4334Z" fill="#F8CC38" fill-opacity="0.1" stroke="#F8CC38" stroke-width="2"/>
<path d="M176.195 30.4334L175.675 30.5092L169.334 31.4337L169.333 31.4338C169.017 31.4796 168.888 31.8725 169.119 32.0974L169.119 32.0977L173.707 36.5682L174.083 36.9353L173.994 37.4537L172.909 43.7682C172.855 44.0855 173.191 44.3264 173.469 44.1787L173.472 44.177L179.145 41.1952L179.61 40.9507L180.076 41.1952L185.748 44.177L185.748 44.1771C186.034 44.3272 186.364 44.0795 186.311 43.7682L185.226 37.4537L185.137 36.9353L185.514 36.5682L190.102 32.0977L190.102 32.0974C190.333 31.8725 190.204 31.4796 189.888 31.4338L189.887 31.4337L183.546 30.5092L183.026 30.4334L182.793 29.962L179.96 24.2173C179.96 24.217 179.96 24.2168 179.96 24.2165C179.814 23.9238 179.402 23.9322 179.261 24.2154L176.195 30.4334ZM176.195 30.4334L176.427 29.962L179.261 24.2158L176.195 30.4334Z" fill="#F8CC38" fill-opacity="0.1" stroke="#F8CC38" stroke-width="2"/>
<path d="M68.1948 30.4334L67.6747 30.5092L61.3335 31.4337L61.3328 31.4338C61.0169 31.4796 60.8876 31.8725 61.1186 32.0974L61.1189 32.0977L65.7066 36.5682L66.0833 36.9353L65.9943 37.4537L64.9093 43.7682C64.855 44.0855 65.1905 44.3264 65.4691 44.1787L65.4722 44.177L71.145 41.1952L71.6103 40.9507L72.0755 41.1952L77.7483 44.177L77.7484 44.1771C78.0339 44.3272 78.3645 44.0795 78.3112 43.7682L77.2263 37.4537L77.1372 36.9353L77.5139 36.5682L82.1016 32.0977L82.1019 32.0974C82.3329 31.8725 82.2036 31.4796 81.8877 31.4338L81.887 31.4337L75.5459 30.5092L75.0258 30.4334L74.7933 29.962L71.96 24.2173C71.9599 24.217 71.9597 24.2168 71.9596 24.2165C71.8137 23.9238 71.4017 23.9322 71.2615 24.2154L68.1948 30.4334ZM68.1948 30.4334L68.4273 29.962L71.2613 24.2158L68.1948 30.4334Z" fill="#F8CC38" stroke="#F8CC38" stroke-width="2"/>
<path d="M152.61 23C152.115 23 151.621 23.2561 151.365 23.7726L148.53 29.5191L142.189 30.4392C141.052 30.6042 140.596 32.0061 141.421 32.809L146.009 37.2795L144.924 43.5946C144.728 44.7274 145.922 45.5911 146.938 45.0573L152.61 42.0799V23Z" fill="#F8CC38"/>
<rect x="73" y="56" width="106" height="17" rx="4" fill="white" fill-opacity="0.2"/>
<rect x="21" y="87" width="39" height="17" rx="4" fill="white" fill-opacity="0.2"/>
<rect x="21" y="107" width="39" height="17" rx="4" fill="white" fill-opacity="0.2"/>
<rect x="21" y="127" width="39" height="17" rx="4" fill="white" fill-opacity="0.2"/>
<rect x="21" y="147" width="39" height="17" rx="4" fill="white" fill-opacity="0.2"/>
<rect x="21" y="167" width="39" height="17" rx="4" fill="white" fill-opacity="0.2"/>
</svg>
