<svg width="276" height="131" viewBox="0 0 276 131" fill="none" xmlns="http://www.w3.org/2000/svg">
<path d="M17 1H259C267.837 1 275 8.16344 275 17V41H1V17C1 8.16344 8.16344 1 17 1Z" fill="#F8CC38" fill-opacity="0.1" stroke="#F8CC38" stroke-width="2"/>
<rect x="16" y="13" width="142" height="16" rx="4" fill="white" fill-opacity="0.2"/>
<path d="M253 28L245.206 14.5L260.794 14.5L253 28Z" fill="#F8CC38"/>
<path d="M1 48H275V114C275 122.837 267.837 130 259 130H17C8.16344 130 1 122.837 1 114V48Z" fill="#F8CC38" fill-opacity="0.1" stroke="#F8CC38" stroke-width="2"/>
<path d="M16 58H158V70C158 72.2091 156.209 74 154 74H20C17.7909 74 16 72.2091 16 70V58Z" fill="white" fill-opacity="0.2"/>
<path d="M16 81H158V93C158 95.2091 156.209 97 154 97H20C17.7909 97 16 95.2091 16 93V81Z" fill="white" fill-opacity="0.2"/>
<path d="M16 104H158V116C158 118.209 156.209 120 154 120H20C17.7909 120 16 118.209 16 116V104Z" fill="white" fill-opacity="0.2"/>
</svg>
